<?xml version="1.0" encoding="UTF-8" standalone="no"?>
<!DOCTYPE svg PUBLIC "-//W3C//DTD SVG 1.1//EN"
 "http://www.w3.org/Graphics/SVG/1.1/DTD/svg11.dtd">
<!-- Generated by graphviz version 2.43.0 (0)
 -->
<!-- Title: finite_state_machine Pages: 1 -->
<svg width="600pt" height="220pt"
 viewBox="0.00 0.00 600.00 220.02" xmlns="http://www.w3.org/2000/svg" xmlns:xlink="http://www.w3.org/1999/xlink">
<g id="graph0" class="graph" transform="scale(1 1) rotate(0) translate(4 216.02)">
<title>finite_state_machine</title>
<polygon fill="white" stroke="transparent" points="-4,4 -4,-216.02 596,-216.02 596,4 -4,4"/>
<!-- 2 -->
<g id="node1" class="node">
<title>2</title>
<ellipse fill="none" stroke="black" cx="97" cy="-194.02" rx="18" ry="18"/>
<text text-anchor="middle" x="97" y="-190.32" font-family="Times,serif" font-size="14.00">2</text>
</g>
<!-- 6 -->
<g id="node2" class="node">
<title>6</title>
<ellipse fill="none" stroke="black" cx="176" cy="-117.02" rx="18" ry="18"/>
<text text-anchor="middle" x="176" y="-113.32" font-family="Times,serif" font-size="14.00">6</text>
</g>
<!-- 2&#45;&gt;6 -->
<g id="edge1" class="edge">
<title>2&#45;&gt;6</title>
<path fill="none" stroke="black" d="M110.37,-181.65C122.5,-169.53 141.16,-150.86 155.33,-136.7"/>
<polygon fill="black" stroke="black" points="158.06,-138.91 162.66,-129.36 153.11,-133.96 158.06,-138.91"/>
<text text-anchor="middle" x="136.5" y="-160.82" font-family="Times,serif" font-size="14.00">0</text>
</g>
<!-- 5 -->
<g id="node3" class="node">
<title>5</title>
<ellipse fill="none" stroke="black" cx="334" cy="-130.02" rx="18" ry="18"/>
<text text-anchor="middle" x="334" y="-126.32" font-family="Times,serif" font-size="14.00">5</text>
</g>
<!-- 2&#45;&gt;5 -->
<g id="edge2" class="edge">
<title>2&#45;&gt;5</title>
<path fill="none" stroke="black" d="M114.71,-190.13C149.2,-182 230.67,-162.29 298,-142.02 300.98,-141.13 304.08,-140.14 307.16,-139.13"/>
<polygon fill="black" stroke="black" points="308.35,-142.42 316.7,-135.9 306.11,-135.79 308.35,-142.42"/>
<text text-anchor="middle" x="215.5" y="-168.82" font-family="Times,serif" font-size="14.00">1</text>
</g>
<!-- 7 -->
<g id="node8" class="node">
<title>7</title>
<ellipse fill="none" stroke="black" cx="255" cy="-117.02" rx="18" ry="18"/>
<text text-anchor="middle" x="255" y="-113.32" font-family="Times,serif" font-size="14.00">7</text>
</g>
<!-- 6&#45;&gt;7 -->
<g id="edge14" class="edge">
<title>6&#45;&gt;7</title>
<path fill="none" stroke="black" d="M194.09,-117.02C203.66,-117.02 215.82,-117.02 226.68,-117.02"/>
<polygon fill="black" stroke="black" points="226.96,-120.52 236.96,-117.02 226.96,-113.52 226.96,-120.52"/>
<text text-anchor="middle" x="215.5" y="-120.82" font-family="Times,serif" font-size="14.00">1</text>
</g>
<!-- 8 -->
<g id="node9" class="node">
<title>8</title>
<ellipse fill="none" stroke="black" cx="413" cy="-108.02" rx="18" ry="18"/>
<text text-anchor="middle" x="413" y="-104.32" font-family="Times,serif" font-size="14.00">8</text>
</g>
<!-- 6&#45;&gt;8 -->
<g id="edge15" class="edge">
<title>6&#45;&gt;8</title>
<path fill="none" stroke="black" d="M188.78,-104.18C207.93,-84.36 248.03,-47.15 291,-33.02 315.36,-25.02 256.36,41.09 377,-40.02 391.06,-49.47 399.79,-66.39 405.02,-80.98"/>
<polygon fill="black" stroke="black" points="401.72,-82.14 408.11,-90.6 408.39,-80.01 401.72,-82.14"/>
<text text-anchor="middle" x="294.5" y="-36.82" font-family="Times,serif" font-size="14.00">1</text>
</g>
<!-- 5&#45;&gt;7 -->
<g id="edge10" class="edge">
<title>5&#45;&gt;7</title>
<path fill="none" stroke="black" d="M320.53,-117.67C314.3,-112.38 306.34,-106.78 298,-104.02 292.24,-102.12 286.02,-102.65 280.16,-104.28"/>
<polygon fill="black" stroke="black" points="278.91,-101.01 270.82,-107.85 281.41,-107.55 278.91,-101.01"/>
<text text-anchor="middle" x="294.5" y="-107.82" font-family="Times,serif" font-size="14.00">2</text>
</g>
<!-- 5&#45;&gt;8 -->
<g id="edge9" class="edge">
<title>5&#45;&gt;8</title>
<path fill="none" stroke="black" d="M351.71,-125.25C361.66,-122.4 374.52,-118.73 385.8,-115.51"/>
<polygon fill="black" stroke="black" points="386.94,-118.82 395.59,-112.71 385.01,-112.09 386.94,-118.82"/>
<text text-anchor="middle" x="373.5" y="-122.82" font-family="Times,serif" font-size="14.00">1</text>
</g>
<!-- 9 -->
<g id="node4" class="node">
<title>9</title>
<ellipse fill="none" stroke="black" cx="493.5" cy="-95.02" rx="18" ry="18"/>
<text text-anchor="middle" x="493.5" y="-91.32" font-family="Times,serif" font-size="14.00">9</text>
</g>
<!-- 1 -->
<g id="node5" class="node">
<title>1</title>
<ellipse fill="none" stroke="black" cx="574" cy="-122.02" rx="18" ry="18"/>
<text text-anchor="middle" x="574" y="-118.32" font-family="Times,serif" font-size="14.00">1</text>
</g>
<!-- 9&#45;&gt;1 -->
<g id="edge3" class="edge">
<title>9&#45;&gt;1</title>
<path fill="none" stroke="black" d="M511.13,-99.61C519.29,-101.96 529.21,-104.96 538,-108.02 541.15,-109.12 544.43,-110.34 547.67,-111.58"/>
<polygon fill="black" stroke="black" points="546.49,-114.88 557.08,-115.31 549.07,-108.37 546.49,-114.88"/>
<text text-anchor="middle" x="534.5" y="-111.82" font-family="Times,serif" font-size="14.00">2</text>
</g>
<!-- 3 -->
<g id="node6" class="node">
<title>3</title>
<ellipse fill="none" stroke="black" cx="97" cy="-140.02" rx="18" ry="18"/>
<text text-anchor="middle" x="97" y="-136.32" font-family="Times,serif" font-size="14.00">3</text>
</g>
<!-- 3&#45;&gt;6 -->
<g id="edge4" class="edge">
<title>3&#45;&gt;6</title>
<path fill="none" stroke="black" d="M114.33,-135.15C124.27,-132.18 137.19,-128.32 148.56,-124.92"/>
<polygon fill="black" stroke="black" points="149.85,-128.19 158.43,-121.97 147.84,-121.48 149.85,-128.19"/>
<text text-anchor="middle" x="136.5" y="-132.82" font-family="Times,serif" font-size="14.00">1</text>
</g>
<!-- 10 -->
<g id="node7" class="node">
<title>10</title>
<ellipse fill="none" stroke="black" cx="493.5" cy="-150.02" rx="19.5" ry="19.5"/>
<text text-anchor="middle" x="493.5" y="-146.32" font-family="Times,serif" font-size="14.00">10</text>
</g>
<!-- 10&#45;&gt;1 -->
<g id="edge5" class="edge">
<title>10&#45;&gt;1</title>
<path fill="none" stroke="black" d="M512.31,-143.67C522.67,-139.98 535.89,-135.26 547.36,-131.17"/>
<polygon fill="black" stroke="black" points="548.61,-134.44 556.86,-127.78 546.26,-127.84 548.61,-134.44"/>
<text text-anchor="middle" x="534.5" y="-139.82" font-family="Times,serif" font-size="14.00">1</text>
</g>
<!-- 7&#45;&gt;5 -->
<g id="edge7" class="edge">
<title>7&#45;&gt;5</title>
<path fill="none" stroke="black" d="M273.09,-119.91C282.83,-121.55 295.24,-123.65 306.24,-125.51"/>
<polygon fill="black" stroke="black" points="305.78,-128.98 316.22,-127.19 306.95,-122.07 305.78,-128.98"/>
<text text-anchor="middle" x="294.5" y="-126.82" font-family="Times,serif" font-size="14.00">1</text>
</g>
<!-- 7&#45;&gt;9 -->
<g id="edge6" class="edge">
<title>7&#45;&gt;9</title>
<path fill="none" stroke="black" d="M270.97,-108.32C277.04,-105.06 284.21,-101.54 291,-99.02 349.81,-77.19 368.73,-73.44 431,-81.02 442.7,-82.45 455.43,-85.15 466.25,-87.8"/>
<polygon fill="black" stroke="black" points="465.4,-91.19 475.96,-90.28 467.14,-84.41 465.4,-91.19"/>
<text text-anchor="middle" x="373.5" y="-81.82" font-family="Times,serif" font-size="14.00">1</text>
</g>
<!-- 7&#45;&gt;10 -->
<g id="edge8" class="edge">
<title>7&#45;&gt;10</title>
<path fill="none" stroke="black" d="M268.58,-128.95C279.95,-138.79 297.66,-151.94 316,-157.02 366.75,-171.08 428.84,-163.13 464.21,-156.37"/>
<polygon fill="black" stroke="black" points="465.18,-159.74 474.29,-154.33 463.8,-152.88 465.18,-159.74"/>
<text text-anchor="middle" x="373.5" y="-167.82" font-family="Times,serif" font-size="14.00">1</text>
</g>
<!-- 8&#45;&gt;5 -->
<g id="edge13" class="edge">
<title>8&#45;&gt;5</title>
<path fill="none" stroke="black" d="M396.11,-101.03C388.1,-98.5 378.35,-96.93 370,-100.02 364.13,-102.19 358.59,-105.83 353.71,-109.85"/>
<polygon fill="black" stroke="black" points="351.19,-107.41 346.2,-116.75 355.93,-112.56 351.19,-107.41"/>
<text text-anchor="middle" x="373.5" y="-103.82" font-family="Times,serif" font-size="14.00">1</text>
</g>
<!-- 8&#45;&gt;9 -->
<g id="edge12" class="edge">
<title>8&#45;&gt;9</title>
<path fill="none" stroke="black" d="M431.03,-105.2C441.11,-103.53 454.11,-101.38 465.55,-99.49"/>
<polygon fill="black" stroke="black" points="466.2,-102.92 475.5,-97.84 465.06,-96.02 466.2,-102.92"/>
<text text-anchor="middle" x="452.5" y="-105.82" font-family="Times,serif" font-size="14.00">1</text>
</g>
<!-- 8&#45;&gt;10 -->
<g id="edge11" class="edge">
<title>8&#45;&gt;10</title>
<path fill="none" stroke="black" d="M429.14,-116.12C439.86,-121.86 454.5,-129.69 467.01,-136.38"/>
<polygon fill="black" stroke="black" points="465.59,-139.59 476.05,-141.22 468.89,-133.42 465.59,-139.59"/>
<text text-anchor="middle" x="452.5" y="-133.82" font-family="Times,serif" font-size="14.00">0</text>
</g>
<!-- 4 -->
<g id="node10" class="node">
<title>4</title>
<ellipse fill="none" stroke="black" cx="97" cy="-86.02" rx="18" ry="18"/>
<text text-anchor="middle" x="97" y="-82.32" font-family="Times,serif" font-size="14.00">4</text>
</g>
<!-- 4&#45;&gt;6 -->
<g id="edge16" class="edge">
<title>4&#45;&gt;6</title>
<path fill="none" stroke="black" d="M113.95,-92.45C124.28,-96.6 137.94,-102.1 149.73,-106.85"/>
<polygon fill="black" stroke="black" points="148.48,-110.12 159.07,-110.61 151.1,-103.63 148.48,-110.12"/>
<text text-anchor="middle" x="136.5" y="-106.82" font-family="Times,serif" font-size="14.00">1</text>
</g>
<!-- 0 -->
<g id="node11" class="node">
<title>0</title>
<ellipse fill="none" stroke="black" cx="18" cy="-140.02" rx="18" ry="18"/>
<text text-anchor="middle" x="18" y="-136.32" font-family="Times,serif" font-size="14.00">0</text>
</g>
<!-- 0&#45;&gt;2 -->
<g id="edge17" class="edge">
<title>0&#45;&gt;2</title>
<path fill="none" stroke="black" d="M33.12,-149.93C44.34,-157.79 60.25,-168.95 73.26,-178.07"/>
<polygon fill="black" stroke="black" points="71.51,-181.12 81.71,-184 75.53,-175.39 71.51,-181.12"/>
<text text-anchor="middle" x="57.5" y="-171.82" font-family="Times,serif" font-size="14.00">1</text>
</g>
<!-- 0&#45;&gt;3 -->
<g id="edge18" class="edge">
<title>0&#45;&gt;3</title>
<path fill="none" stroke="black" d="M36.09,-140.02C45.66,-140.02 57.82,-140.02 68.68,-140.02"/>
<polygon fill="black" stroke="black" points="68.96,-143.52 78.96,-140.02 68.96,-136.52 68.96,-143.52"/>
<text text-anchor="middle" x="57.5" y="-143.82" font-family="Times,serif" font-size="14.00">1</text>
</g>
<!-- 0&#45;&gt;4 -->
<g id="edge19" class="edge">
<title>0&#45;&gt;4</title>
<path fill="none" stroke="black" d="M33.12,-130.12C44.34,-122.25 60.25,-111.09 73.26,-101.97"/>
<polygon fill="black" stroke="black" points="75.53,-104.65 81.71,-96.05 71.51,-98.92 75.53,-104.65"/>
<text text-anchor="middle" x="57.5" y="-118.82" font-family="Times,serif" font-size="14.00">1</text>
</g>
</g>
</svg>
