<?xml version="1.0" encoding="UTF-8" standalone="no"?>
<!DOCTYPE svg PUBLIC "-//W3C//DTD SVG 1.1//EN"
 "http://www.w3.org/Graphics/SVG/1.1/DTD/svg11.dtd">
<!-- Generated by graphviz version 2.43.0 (0)
 -->
<!-- Title: finite_state_machine Pages: 1 -->
<svg width="445pt" height="172pt"
 viewBox="0.00 0.00 445.00 171.75" xmlns="http://www.w3.org/2000/svg" xmlns:xlink="http://www.w3.org/1999/xlink">
<g id="graph0" class="graph" transform="scale(1 1) rotate(0) translate(4 167.75)">
<title>finite_state_machine</title>
<polygon fill="white" stroke="transparent" points="-4,4 -4,-167.75 441,-167.75 441,4 -4,4"/>
<!-- 4 -->
<g id="node1" class="node">
<title>4</title>
<ellipse fill="none" stroke="black" cx="97" cy="-91.75" rx="18" ry="18"/>
<text text-anchor="middle" x="97" y="-88.05" font-family="Times,serif" font-size="14.00">4</text>
</g>
<!-- 6 -->
<g id="node2" class="node">
<title>6</title>
<ellipse fill="none" stroke="black" cx="179" cy="-95.75" rx="18" ry="18"/>
<text text-anchor="middle" x="179" y="-92.05" font-family="Times,serif" font-size="14.00">6</text>
</g>
<!-- 4&#45;&gt;6 -->
<g id="edge1" class="edge">
<title>4&#45;&gt;6</title>
<path fill="none" stroke="black" d="M115.36,-92.62C125.7,-93.13 139.06,-93.8 150.78,-94.39"/>
<polygon fill="black" stroke="black" points="150.79,-97.89 160.95,-94.9 151.14,-90.9 150.79,-97.89"/>
<text text-anchor="middle" x="138" y="-97.55" font-family="Times,serif" font-size="14.00">∞</text>
</g>
<!-- 8 -->
<g id="node7" class="node">
<title>8</title>
<ellipse fill="none" stroke="black" cx="258" cy="-95.75" rx="18" ry="18"/>
<text text-anchor="middle" x="258" y="-92.05" font-family="Times,serif" font-size="14.00">8</text>
</g>
<!-- 6&#45;&gt;8 -->
<g id="edge8" class="edge">
<title>6&#45;&gt;8</title>
<path fill="none" stroke="black" d="M197.09,-95.75C206.66,-95.75 218.82,-95.75 229.68,-95.75"/>
<polygon fill="black" stroke="black" points="229.96,-99.25 239.96,-95.75 229.96,-92.25 229.96,-99.25"/>
<text text-anchor="middle" x="218.5" y="-99.55" font-family="Times,serif" font-size="14.00">1</text>
</g>
<!-- 7 -->
<g id="node8" class="node">
<title>7</title>
<ellipse fill="none" stroke="black" cx="258" cy="-30.75" rx="18" ry="18"/>
<text text-anchor="middle" x="258" y="-27.05" font-family="Times,serif" font-size="14.00">7</text>
</g>
<!-- 6&#45;&gt;7 -->
<g id="edge9" class="edge">
<title>6&#45;&gt;7</title>
<path fill="none" stroke="black" d="M193.41,-84.43C205.12,-74.55 222.3,-60.04 235.85,-48.6"/>
<polygon fill="black" stroke="black" points="238.36,-51.07 243.74,-41.94 233.84,-45.72 238.36,-51.07"/>
<text text-anchor="middle" x="218.5" y="-68.55" font-family="Times,serif" font-size="14.00">1</text>
</g>
<!-- 3 -->
<g id="node3" class="node">
<title>3</title>
<ellipse fill="none" stroke="black" cx="97" cy="-145.75" rx="18" ry="18"/>
<text text-anchor="middle" x="97" y="-142.05" font-family="Times,serif" font-size="14.00">3</text>
</g>
<!-- 3&#45;&gt;6 -->
<g id="edge2" class="edge">
<title>3&#45;&gt;6</title>
<path fill="none" stroke="black" d="M112.67,-136.58C124.4,-129.25 141.06,-118.83 154.63,-110.36"/>
<polygon fill="black" stroke="black" points="156.79,-113.13 163.42,-104.86 153.08,-107.19 156.79,-113.13"/>
<text text-anchor="middle" x="138" y="-126.55" font-family="Times,serif" font-size="14.00">∞</text>
</g>
<!-- 0 -->
<g id="node4" class="node">
<title>0</title>
<ellipse fill="none" stroke="black" cx="18" cy="-91.75" rx="18" ry="18"/>
<text text-anchor="middle" x="18" y="-88.05" font-family="Times,serif" font-size="14.00">0</text>
</g>
<!-- 0&#45;&gt;4 -->
<g id="edge3" class="edge">
<title>0&#45;&gt;4</title>
<path fill="none" stroke="black" d="M36.09,-91.75C45.66,-91.75 57.82,-91.75 68.68,-91.75"/>
<polygon fill="black" stroke="black" points="68.96,-95.25 78.96,-91.75 68.96,-88.25 68.96,-95.25"/>
<text text-anchor="middle" x="57.5" y="-95.55" font-family="Times,serif" font-size="14.00">1</text>
</g>
<!-- 0&#45;&gt;3 -->
<g id="edge4" class="edge">
<title>0&#45;&gt;3</title>
<path fill="none" stroke="black" d="M33.12,-101.65C44.34,-109.52 60.25,-120.68 73.26,-129.8"/>
<polygon fill="black" stroke="black" points="71.51,-132.85 81.71,-135.72 75.53,-127.12 71.51,-132.85"/>
<text text-anchor="middle" x="57.5" y="-123.55" font-family="Times,serif" font-size="14.00">1</text>
</g>
<!-- 2 -->
<g id="node5" class="node">
<title>2</title>
<ellipse fill="none" stroke="black" cx="97" cy="-37.75" rx="18" ry="18"/>
<text text-anchor="middle" x="97" y="-34.05" font-family="Times,serif" font-size="14.00">2</text>
</g>
<!-- 0&#45;&gt;2 -->
<g id="edge5" class="edge">
<title>0&#45;&gt;2</title>
<path fill="none" stroke="black" d="M33.12,-81.84C44.34,-73.98 60.25,-62.82 73.26,-53.7"/>
<polygon fill="black" stroke="black" points="75.53,-56.38 81.71,-47.77 71.51,-50.65 75.53,-56.38"/>
<text text-anchor="middle" x="57.5" y="-69.55" font-family="Times,serif" font-size="14.00">1</text>
</g>
<!-- 2&#45;&gt;6 -->
<g id="edge6" class="edge">
<title>2&#45;&gt;6</title>
<path fill="none" stroke="black" d="M111.93,-47.85C124.02,-56.61 141.73,-69.45 155.77,-79.63"/>
<polygon fill="black" stroke="black" points="153.81,-82.53 163.96,-85.57 157.91,-76.86 153.81,-82.53"/>
<text text-anchor="middle" x="138" y="-73.55" font-family="Times,serif" font-size="14.00">∞</text>
</g>
<!-- 5 -->
<g id="node6" class="node">
<title>5</title>
<ellipse fill="none" stroke="black" cx="179" cy="-19.75" rx="18" ry="18"/>
<text text-anchor="middle" x="179" y="-16.05" font-family="Times,serif" font-size="14.00">5</text>
</g>
<!-- 2&#45;&gt;5 -->
<g id="edge7" class="edge">
<title>2&#45;&gt;5</title>
<path fill="none" stroke="black" d="M112.8,-28.81C118.84,-25.63 126.04,-22.43 133,-20.75 138.6,-19.39 144.71,-18.74 150.57,-18.49"/>
<polygon fill="black" stroke="black" points="150.71,-21.99 160.68,-18.42 150.66,-14.99 150.71,-21.99"/>
<text text-anchor="middle" x="138" y="-24.55" font-family="Times,serif" font-size="14.00">∞</text>
</g>
<!-- 5&#45;&gt;8 -->
<g id="edge10" class="edge">
<title>5&#45;&gt;8</title>
<path fill="none" stroke="black" d="M195.97,-25.78C204.37,-29.5 214.46,-34.87 222,-41.75 230.89,-49.85 238.48,-60.68 244.31,-70.51"/>
<polygon fill="black" stroke="black" points="241.4,-72.49 249.33,-79.52 247.52,-69.08 241.4,-72.49"/>
<text text-anchor="middle" x="218.5" y="-45.55" font-family="Times,serif" font-size="14.00">1</text>
</g>
<!-- 5&#45;&gt;7 -->
<g id="edge11" class="edge">
<title>5&#45;&gt;7</title>
<path fill="none" stroke="black" d="M193.46,-8.42C201.62,-2.95 212.3,1.75 222,-1.75 227.57,-3.76 232.88,-7.08 237.6,-10.77"/>
<polygon fill="black" stroke="black" points="235.58,-13.65 245.4,-17.61 240.19,-8.38 235.58,-13.65"/>
<text text-anchor="middle" x="218.5" y="-5.55" font-family="Times,serif" font-size="14.00">1</text>
</g>
<!-- 10 -->
<g id="node9" class="node">
<title>10</title>
<ellipse fill="none" stroke="black" cx="338.5" cy="-90.75" rx="19.5" ry="19.5"/>
<text text-anchor="middle" x="338.5" y="-87.05" font-family="Times,serif" font-size="14.00">10</text>
</g>
<!-- 8&#45;&gt;10 -->
<g id="edge12" class="edge">
<title>8&#45;&gt;10</title>
<path fill="none" stroke="black" d="M276.19,-98.37C283.8,-99.17 292.86,-99.63 301,-98.75 303.75,-98.45 306.59,-98.03 309.42,-97.54"/>
<polygon fill="black" stroke="black" points="310.32,-100.93 319.43,-95.52 308.94,-94.06 310.32,-100.93"/>
<text text-anchor="middle" x="297.5" y="-102.55" font-family="Times,serif" font-size="14.00">1</text>
</g>
<!-- 9 -->
<g id="node10" class="node">
<title>9</title>
<ellipse fill="none" stroke="black" cx="338.5" cy="-35.75" rx="18" ry="18"/>
<text text-anchor="middle" x="338.5" y="-32.05" font-family="Times,serif" font-size="14.00">9</text>
</g>
<!-- 8&#45;&gt;9 -->
<g id="edge13" class="edge">
<title>8&#45;&gt;9</title>
<path fill="none" stroke="black" d="M272.67,-85.3C284.53,-76.23 301.91,-62.95 315.69,-52.42"/>
<polygon fill="black" stroke="black" points="317.9,-55.13 323.72,-46.28 313.65,-49.57 317.9,-55.13"/>
<text text-anchor="middle" x="297.5" y="-70.55" font-family="Times,serif" font-size="14.00">1</text>
</g>
<!-- 7&#45;&gt;10 -->
<g id="edge16" class="edge">
<title>7&#45;&gt;10</title>
<path fill="none" stroke="black" d="M275.98,-34.03C284.07,-36.17 293.57,-39.55 301,-44.75 305.71,-48.05 313.37,-57.39 320.46,-66.8"/>
<polygon fill="black" stroke="black" points="317.7,-68.96 326.45,-74.93 323.34,-64.81 317.7,-68.96"/>
<text text-anchor="middle" x="297.5" y="-48.55" font-family="Times,serif" font-size="14.00">1</text>
</g>
<!-- 7&#45;&gt;9 -->
<g id="edge17" class="edge">
<title>7&#45;&gt;9</title>
<path fill="none" stroke="black" d="M270.98,-17.93C279.11,-10.83 290.29,-4.11 301,-7.75 306.81,-9.72 312.43,-13.03 317.44,-16.71"/>
<polygon fill="black" stroke="black" points="315.26,-19.45 325.22,-23.05 319.68,-14.02 315.26,-19.45"/>
<text text-anchor="middle" x="297.5" y="-11.55" font-family="Times,serif" font-size="14.00">1</text>
</g>
<!-- 1 -->
<g id="node11" class="node">
<title>1</title>
<ellipse fill="none" stroke="black" cx="419" cy="-62.75" rx="18" ry="18"/>
<text text-anchor="middle" x="419" y="-59.05" font-family="Times,serif" font-size="14.00">1</text>
</g>
<!-- 10&#45;&gt;1 -->
<g id="edge14" class="edge">
<title>10&#45;&gt;1</title>
<path fill="none" stroke="black" d="M357.31,-84.39C367.67,-80.7 380.89,-75.98 392.36,-71.89"/>
<polygon fill="black" stroke="black" points="393.61,-75.16 401.86,-68.51 391.26,-68.57 393.61,-75.16"/>
<text text-anchor="middle" x="379.5" y="-80.55" font-family="Times,serif" font-size="14.00">3</text>
</g>
<!-- 9&#45;&gt;1 -->
<g id="edge15" class="edge">
<title>9&#45;&gt;1</title>
<path fill="none" stroke="black" d="M356.13,-40.34C364.29,-42.69 374.21,-45.69 383,-48.75 386.15,-49.85 389.43,-51.06 392.67,-52.31"/>
<polygon fill="black" stroke="black" points="391.49,-55.61 402.08,-56.03 394.07,-49.1 391.49,-55.61"/>
<text text-anchor="middle" x="379.5" y="-52.55" font-family="Times,serif" font-size="14.00">3</text>
</g>
</g>
</svg>
