<?xml version="1.0" encoding="UTF-8" standalone="no"?>
<!DOCTYPE svg PUBLIC "-//W3C//DTD SVG 1.1//EN"
 "http://www.w3.org/Graphics/SVG/1.1/DTD/svg11.dtd">
<!-- Generated by graphviz version 2.43.0 (0)
 -->
<!-- Title: finite_state_machine Pages: 1 -->
<svg width="442pt" height="153pt"
 viewBox="0.00 0.00 442.00 153.50" xmlns="http://www.w3.org/2000/svg" xmlns:xlink="http://www.w3.org/1999/xlink">
<g id="graph0" class="graph" transform="scale(1 1) rotate(0) translate(4 149.5)">
<title>finite_state_machine</title>
<polygon fill="white" stroke="transparent" points="-4,4 -4,-149.5 438,-149.5 438,4 -4,4"/>
<!-- 2 -->
<g id="node1" class="node">
<title>2</title>
<ellipse fill="none" stroke="black" cx="97" cy="-126" rx="18" ry="18"/>
<text text-anchor="middle" x="97" y="-122.3" font-family="Times,serif" font-size="14.00">2</text>
</g>
<!-- 5 -->
<g id="node2" class="node">
<title>5</title>
<ellipse fill="none" stroke="black" cx="176" cy="-126" rx="18" ry="18"/>
<text text-anchor="middle" x="176" y="-122.3" font-family="Times,serif" font-size="14.00">5</text>
</g>
<!-- 2&#45;&gt;5 -->
<g id="edge1" class="edge">
<title>2&#45;&gt;5</title>
<path fill="none" stroke="black" d="M115.09,-126C124.66,-126 136.82,-126 147.68,-126"/>
<polygon fill="black" stroke="black" points="147.96,-129.5 157.96,-126 147.96,-122.5 147.96,-129.5"/>
<text text-anchor="middle" x="136.5" y="-129.8" font-family="Times,serif" font-size="14.00">1</text>
</g>
<!-- 7 -->
<g id="node8" class="node">
<title>7</title>
<ellipse fill="none" stroke="black" cx="255" cy="-115" rx="18" ry="18"/>
<text text-anchor="middle" x="255" y="-111.3" font-family="Times,serif" font-size="14.00">7</text>
</g>
<!-- 5&#45;&gt;7 -->
<g id="edge14" class="edge">
<title>5&#45;&gt;7</title>
<path fill="none" stroke="black" d="M194.09,-123.56C203.76,-122.18 216.07,-120.42 227.02,-118.85"/>
<polygon fill="black" stroke="black" points="227.55,-122.31 236.96,-117.43 226.56,-115.38 227.55,-122.31"/>
<text text-anchor="middle" x="215.5" y="-123.8" font-family="Times,serif" font-size="14.00">1</text>
</g>
<!-- 9 -->
<g id="node3" class="node">
<title>9</title>
<ellipse fill="none" stroke="black" cx="335.5" cy="-71" rx="18" ry="18"/>
<text text-anchor="middle" x="335.5" y="-67.3" font-family="Times,serif" font-size="14.00">9</text>
</g>
<!-- 1 -->
<g id="node4" class="node">
<title>1</title>
<ellipse fill="none" stroke="black" cx="416" cy="-98" rx="18" ry="18"/>
<text text-anchor="middle" x="416" y="-94.3" font-family="Times,serif" font-size="14.00">1</text>
</g>
<!-- 9&#45;&gt;1 -->
<g id="edge2" class="edge">
<title>9&#45;&gt;1</title>
<path fill="none" stroke="black" d="M353.13,-75.59C361.29,-77.94 371.21,-80.94 380,-84 383.15,-85.1 386.43,-86.32 389.67,-87.56"/>
<polygon fill="black" stroke="black" points="388.49,-90.86 399.08,-91.28 391.07,-84.35 388.49,-90.86"/>
<text text-anchor="middle" x="376.5" y="-87.8" font-family="Times,serif" font-size="14.00">2</text>
</g>
<!-- 3 -->
<g id="node5" class="node">
<title>3</title>
<ellipse fill="none" stroke="black" cx="97" cy="-72" rx="18" ry="18"/>
<text text-anchor="middle" x="97" y="-68.3" font-family="Times,serif" font-size="14.00">3</text>
</g>
<!-- 6 -->
<g id="node6" class="node">
<title>6</title>
<ellipse fill="none" stroke="black" cx="176" cy="-57" rx="18" ry="18"/>
<text text-anchor="middle" x="176" y="-53.3" font-family="Times,serif" font-size="14.00">6</text>
</g>
<!-- 3&#45;&gt;6 -->
<g id="edge3" class="edge">
<title>3&#45;&gt;6</title>
<path fill="none" stroke="black" d="M114.71,-68.75C124.43,-66.85 136.91,-64.42 148,-62.26"/>
<polygon fill="black" stroke="black" points="148.91,-65.65 158.06,-60.3 147.57,-58.78 148.91,-65.65"/>
<text text-anchor="middle" x="136.5" y="-67.8" font-family="Times,serif" font-size="14.00">1</text>
</g>
<!-- 6&#45;&gt;7 -->
<g id="edge5" class="edge">
<title>6&#45;&gt;7</title>
<path fill="none" stroke="black" d="M190.77,-67.37C202.19,-75.98 218.66,-88.38 231.92,-98.37"/>
<polygon fill="black" stroke="black" points="230,-101.3 240.09,-104.52 234.21,-95.71 230,-101.3"/>
<text text-anchor="middle" x="215.5" y="-90.8" font-family="Times,serif" font-size="14.00">1</text>
</g>
<!-- 8 -->
<g id="node9" class="node">
<title>8</title>
<ellipse fill="none" stroke="black" cx="255" cy="-50" rx="18" ry="18"/>
<text text-anchor="middle" x="255" y="-46.3" font-family="Times,serif" font-size="14.00">8</text>
</g>
<!-- 6&#45;&gt;8 -->
<g id="edge6" class="edge">
<title>6&#45;&gt;8</title>
<path fill="none" stroke="black" d="M194.02,-53.57C199.71,-52.56 206.11,-51.57 212,-51 216.7,-50.54 221.71,-50.25 226.57,-50.08"/>
<polygon fill="black" stroke="black" points="226.88,-53.57 236.8,-49.84 226.72,-46.57 226.88,-53.57"/>
<text text-anchor="middle" x="215.5" y="-54.8" font-family="Times,serif" font-size="14.00">1</text>
</g>
<!-- 10 -->
<g id="node7" class="node">
<title>10</title>
<ellipse fill="none" stroke="black" cx="335.5" cy="-126" rx="19.5" ry="19.5"/>
<text text-anchor="middle" x="335.5" y="-122.3" font-family="Times,serif" font-size="14.00">10</text>
</g>
<!-- 10&#45;&gt;1 -->
<g id="edge4" class="edge">
<title>10&#45;&gt;1</title>
<path fill="none" stroke="black" d="M354.31,-119.65C364.67,-115.95 377.89,-111.23 389.36,-107.15"/>
<polygon fill="black" stroke="black" points="390.61,-110.41 398.86,-103.76 388.26,-103.82 390.61,-110.41"/>
<text text-anchor="middle" x="376.5" y="-115.8" font-family="Times,serif" font-size="14.00">1</text>
</g>
<!-- 7&#45;&gt;9 -->
<g id="edge12" class="edge">
<title>7&#45;&gt;9</title>
<path fill="none" stroke="black" d="M271.14,-106.52C282.32,-100.25 297.77,-91.59 310.62,-84.39"/>
<polygon fill="black" stroke="black" points="312.4,-87.4 319.41,-79.46 308.98,-81.29 312.4,-87.4"/>
<text text-anchor="middle" x="294.5" y="-97.8" font-family="Times,serif" font-size="14.00">1</text>
</g>
<!-- 7&#45;&gt;10 -->
<g id="edge13" class="edge">
<title>7&#45;&gt;10</title>
<path fill="none" stroke="black" d="M273.03,-117.39C282.67,-118.74 294.97,-120.46 306.03,-122.01"/>
<polygon fill="black" stroke="black" points="305.74,-125.5 316.13,-123.43 306.71,-118.57 305.74,-125.5"/>
<text text-anchor="middle" x="294.5" y="-123.8" font-family="Times,serif" font-size="14.00">1</text>
</g>
<!-- 8&#45;&gt;9 -->
<g id="edge11" class="edge">
<title>8&#45;&gt;9</title>
<path fill="none" stroke="black" d="M273.02,-48.59C280.76,-48.41 289.97,-48.84 298,-51 302.52,-52.21 307.09,-54.09 311.39,-56.22"/>
<polygon fill="black" stroke="black" points="309.82,-59.36 320.26,-61.13 313.2,-53.23 309.82,-59.36"/>
<text text-anchor="middle" x="294.5" y="-54.8" font-family="Times,serif" font-size="14.00">1</text>
</g>
<!-- 4 -->
<g id="node10" class="node">
<title>4</title>
<ellipse fill="none" stroke="black" cx="97" cy="-18" rx="18" ry="18"/>
<text text-anchor="middle" x="97" y="-14.3" font-family="Times,serif" font-size="14.00">4</text>
</g>
<!-- 4&#45;&gt;6 -->
<g id="edge7" class="edge">
<title>4&#45;&gt;6</title>
<path fill="none" stroke="black" d="M113.58,-25.89C124.19,-31.27 138.45,-38.49 150.56,-44.62"/>
<polygon fill="black" stroke="black" points="149.2,-47.86 159.7,-49.25 152.36,-41.61 149.2,-47.86"/>
<text text-anchor="middle" x="136.5" y="-41.8" font-family="Times,serif" font-size="14.00">1</text>
</g>
<!-- 0 -->
<g id="node11" class="node">
<title>0</title>
<ellipse fill="none" stroke="black" cx="18" cy="-72" rx="18" ry="18"/>
<text text-anchor="middle" x="18" y="-68.3" font-family="Times,serif" font-size="14.00">0</text>
</g>
<!-- 0&#45;&gt;2 -->
<g id="edge8" class="edge">
<title>0&#45;&gt;2</title>
<path fill="none" stroke="black" d="M33.12,-81.9C44.34,-89.77 60.25,-100.93 73.26,-110.05"/>
<polygon fill="black" stroke="black" points="71.51,-113.1 81.71,-115.98 75.53,-107.37 71.51,-113.1"/>
<text text-anchor="middle" x="57.5" y="-103.8" font-family="Times,serif" font-size="14.00">1</text>
</g>
<!-- 0&#45;&gt;3 -->
<g id="edge9" class="edge">
<title>0&#45;&gt;3</title>
<path fill="none" stroke="black" d="M36.09,-72C45.66,-72 57.82,-72 68.68,-72"/>
<polygon fill="black" stroke="black" points="68.96,-75.5 78.96,-72 68.96,-68.5 68.96,-75.5"/>
<text text-anchor="middle" x="57.5" y="-75.8" font-family="Times,serif" font-size="14.00">1</text>
</g>
<!-- 0&#45;&gt;4 -->
<g id="edge10" class="edge">
<title>0&#45;&gt;4</title>
<path fill="none" stroke="black" d="M33.12,-62.1C44.34,-54.23 60.25,-43.07 73.26,-33.95"/>
<polygon fill="black" stroke="black" points="75.53,-36.63 81.71,-28.02 71.51,-30.9 75.53,-36.63"/>
<text text-anchor="middle" x="57.5" y="-49.8" font-family="Times,serif" font-size="14.00">1</text>
</g>
</g>
</svg>
