<?xml version="1.0" encoding="UTF-8" standalone="no"?>
<!DOCTYPE svg PUBLIC "-//W3C//DTD SVG 1.1//EN"
 "http://www.w3.org/Graphics/SVG/1.1/DTD/svg11.dtd">
<!-- Generated by graphviz version 2.43.0 (0)
 -->
<!-- Title: finite_state_machine Pages: 1 -->
<svg width="442pt" height="153pt"
 viewBox="0.00 0.00 442.00 153.50" xmlns="http://www.w3.org/2000/svg" xmlns:xlink="http://www.w3.org/1999/xlink">
<g id="graph0" class="graph" transform="scale(1 1) rotate(0) translate(4 149.5)">
<title>finite_state_machine</title>
<polygon fill="white" stroke="transparent" points="-4,4 -4,-149.5 438,-149.5 438,4 -4,4"/>
<!-- 8 -->
<g id="node1" class="node">
<title>8</title>
<ellipse fill="none" stroke="black" cx="255" cy="-95.5" rx="18" ry="18"/>
<text text-anchor="middle" x="255" y="-91.8" font-family="Times,serif" font-size="14.00">8</text>
</g>
<!-- 9 -->
<g id="node2" class="node">
<title>9</title>
<ellipse fill="none" stroke="black" cx="335.5" cy="-74.5" rx="18" ry="18"/>
<text text-anchor="middle" x="335.5" y="-70.8" font-family="Times,serif" font-size="14.00">9</text>
</g>
<!-- 8&#45;&gt;9 -->
<g id="edge1" class="edge">
<title>8&#45;&gt;9</title>
<path fill="none" stroke="black" d="M272.65,-91.04C282.95,-88.29 296.41,-84.69 308.13,-81.55"/>
<polygon fill="black" stroke="black" points="309.12,-84.91 317.87,-78.95 307.31,-78.15 309.12,-84.91"/>
<text text-anchor="middle" x="294.5" y="-89.3" font-family="Times,serif" font-size="14.00">1</text>
</g>
<!-- 1 -->
<g id="node6" class="node">
<title>1</title>
<ellipse fill="none" stroke="black" cx="416" cy="-46.5" rx="18" ry="18"/>
<text text-anchor="middle" x="416" y="-42.8" font-family="Times,serif" font-size="14.00">1</text>
</g>
<!-- 9&#45;&gt;1 -->
<g id="edge12" class="edge">
<title>9&#45;&gt;1</title>
<path fill="none" stroke="black" d="M352.76,-68.7C363.29,-64.94 377.22,-59.97 389.23,-55.69"/>
<polygon fill="black" stroke="black" points="390.51,-58.95 398.75,-52.29 388.16,-52.36 390.51,-58.95"/>
<text text-anchor="middle" x="376.5" y="-64.3" font-family="Times,serif" font-size="14.00">2</text>
</g>
<!-- 5 -->
<g id="node3" class="node">
<title>5</title>
<ellipse fill="none" stroke="black" cx="176" cy="-19.5" rx="18" ry="18"/>
<text text-anchor="middle" x="176" y="-15.8" font-family="Times,serif" font-size="14.00">5</text>
</g>
<!-- 7 -->
<g id="node4" class="node">
<title>7</title>
<ellipse fill="none" stroke="black" cx="255" cy="-30.5" rx="18" ry="18"/>
<text text-anchor="middle" x="255" y="-26.8" font-family="Times,serif" font-size="14.00">7</text>
</g>
<!-- 5&#45;&gt;7 -->
<g id="edge2" class="edge">
<title>5&#45;&gt;7</title>
<path fill="none" stroke="black" d="M194.25,-18.92C201.88,-18.92 210.92,-19.27 219,-20.5 221.93,-20.94 224.96,-21.56 227.95,-22.27"/>
<polygon fill="black" stroke="black" points="227.24,-25.71 237.81,-24.94 229.07,-18.95 227.24,-25.71"/>
<text text-anchor="middle" x="215.5" y="-24.3" font-family="Times,serif" font-size="14.00">1</text>
</g>
<!-- 7&#45;&gt;9 -->
<g id="edge4" class="edge">
<title>7&#45;&gt;9</title>
<path fill="none" stroke="black" d="M271.14,-38.98C282.32,-45.25 297.77,-53.91 310.62,-61.11"/>
<polygon fill="black" stroke="black" points="308.98,-64.2 319.41,-66.04 312.4,-58.1 308.98,-64.2"/>
<text text-anchor="middle" x="294.5" y="-57.3" font-family="Times,serif" font-size="14.00">1</text>
</g>
<!-- 10 -->
<g id="node5" class="node">
<title>10</title>
<ellipse fill="none" stroke="black" cx="335.5" cy="-19.5" rx="19.5" ry="19.5"/>
<text text-anchor="middle" x="335.5" y="-15.8" font-family="Times,serif" font-size="14.00">10</text>
</g>
<!-- 7&#45;&gt;10 -->
<g id="edge3" class="edge">
<title>7&#45;&gt;10</title>
<path fill="none" stroke="black" d="M272.19,-24.94C278.04,-23.18 284.75,-21.45 291,-20.5 295.66,-19.79 300.64,-19.37 305.5,-19.13"/>
<polygon fill="black" stroke="black" points="305.87,-22.63 315.78,-18.89 305.7,-15.63 305.87,-22.63"/>
<text text-anchor="middle" x="294.5" y="-24.3" font-family="Times,serif" font-size="14.00">1</text>
</g>
<!-- 10&#45;&gt;1 -->
<g id="edge5" class="edge">
<title>10&#45;&gt;1</title>
<path fill="none" stroke="black" d="M354.39,-24.45C362.29,-26.74 371.66,-29.59 380,-32.5 383.15,-33.6 386.43,-34.81 389.67,-36.06"/>
<polygon fill="black" stroke="black" points="388.49,-39.36 399.08,-39.78 391.07,-32.85 388.49,-39.36"/>
<text text-anchor="middle" x="376.5" y="-36.3" font-family="Times,serif" font-size="14.00">1</text>
</g>
<!-- 6 -->
<g id="node7" class="node">
<title>6</title>
<ellipse fill="none" stroke="black" cx="176" cy="-89.5" rx="18" ry="18"/>
<text text-anchor="middle" x="176" y="-85.8" font-family="Times,serif" font-size="14.00">6</text>
</g>
<!-- 6&#45;&gt;8 -->
<g id="edge6" class="edge">
<title>6&#45;&gt;8</title>
<path fill="none" stroke="black" d="M194.09,-90.83C203.66,-91.58 215.82,-92.52 226.68,-93.37"/>
<polygon fill="black" stroke="black" points="226.72,-96.88 236.96,-94.17 227.26,-89.9 226.72,-96.88"/>
<text text-anchor="middle" x="215.5" y="-96.3" font-family="Times,serif" font-size="14.00">1</text>
</g>
<!-- 6&#45;&gt;7 -->
<g id="edge7" class="edge">
<title>6&#45;&gt;7</title>
<path fill="none" stroke="black" d="M190.77,-78.95C202.19,-70.2 218.66,-57.58 231.92,-47.41"/>
<polygon fill="black" stroke="black" points="234.28,-50.01 240.09,-41.15 230.03,-44.46 234.28,-50.01"/>
<text text-anchor="middle" x="215.5" y="-65.3" font-family="Times,serif" font-size="14.00">1</text>
</g>
<!-- 4 -->
<g id="node8" class="node">
<title>4</title>
<ellipse fill="none" stroke="black" cx="97" cy="-127.5" rx="18" ry="18"/>
<text text-anchor="middle" x="97" y="-123.8" font-family="Times,serif" font-size="14.00">4</text>
</g>
<!-- 4&#45;&gt;6 -->
<g id="edge8" class="edge">
<title>4&#45;&gt;6</title>
<path fill="none" stroke="black" d="M113.58,-119.81C124.12,-114.61 138.27,-107.63 150.33,-101.67"/>
<polygon fill="black" stroke="black" points="152.02,-104.74 159.44,-97.18 148.92,-98.46 152.02,-104.74"/>
<text text-anchor="middle" x="136.5" y="-113.3" font-family="Times,serif" font-size="14.00">1</text>
</g>
<!-- 0 -->
<g id="node9" class="node">
<title>0</title>
<ellipse fill="none" stroke="black" cx="18" cy="-73.5" rx="18" ry="18"/>
<text text-anchor="middle" x="18" y="-69.8" font-family="Times,serif" font-size="14.00">0</text>
</g>
<!-- 0&#45;&gt;4 -->
<g id="edge9" class="edge">
<title>0&#45;&gt;4</title>
<path fill="none" stroke="black" d="M33.12,-83.4C44.34,-91.27 60.25,-102.43 73.26,-111.55"/>
<polygon fill="black" stroke="black" points="71.51,-114.6 81.71,-117.47 75.53,-108.87 71.51,-114.6"/>
<text text-anchor="middle" x="57.5" y="-105.3" font-family="Times,serif" font-size="14.00">1</text>
</g>
<!-- 3 -->
<g id="node10" class="node">
<title>3</title>
<ellipse fill="none" stroke="black" cx="97" cy="-73.5" rx="18" ry="18"/>
<text text-anchor="middle" x="97" y="-69.8" font-family="Times,serif" font-size="14.00">3</text>
</g>
<!-- 0&#45;&gt;3 -->
<g id="edge10" class="edge">
<title>0&#45;&gt;3</title>
<path fill="none" stroke="black" d="M36.09,-73.5C45.66,-73.5 57.82,-73.5 68.68,-73.5"/>
<polygon fill="black" stroke="black" points="68.96,-77 78.96,-73.5 68.96,-70 68.96,-77"/>
<text text-anchor="middle" x="57.5" y="-77.3" font-family="Times,serif" font-size="14.00">1</text>
</g>
<!-- 2 -->
<g id="node11" class="node">
<title>2</title>
<ellipse fill="none" stroke="black" cx="97" cy="-19.5" rx="18" ry="18"/>
<text text-anchor="middle" x="97" y="-15.8" font-family="Times,serif" font-size="14.00">2</text>
</g>
<!-- 0&#45;&gt;2 -->
<g id="edge11" class="edge">
<title>0&#45;&gt;2</title>
<path fill="none" stroke="black" d="M33.12,-63.59C44.34,-55.73 60.25,-44.57 73.26,-35.45"/>
<polygon fill="black" stroke="black" points="75.53,-38.13 81.71,-29.52 71.51,-32.4 75.53,-38.13"/>
<text text-anchor="middle" x="57.5" y="-51.3" font-family="Times,serif" font-size="14.00">1</text>
</g>
<!-- 3&#45;&gt;6 -->
<g id="edge13" class="edge">
<title>3&#45;&gt;6</title>
<path fill="none" stroke="black" d="M114.71,-76.97C124.5,-79 137.08,-81.62 148.23,-83.93"/>
<polygon fill="black" stroke="black" points="147.82,-87.43 158.32,-86.03 149.25,-80.57 147.82,-87.43"/>
<text text-anchor="middle" x="136.5" y="-85.3" font-family="Times,serif" font-size="14.00">1</text>
</g>
<!-- 2&#45;&gt;5 -->
<g id="edge14" class="edge">
<title>2&#45;&gt;5</title>
<path fill="none" stroke="black" d="M115.09,-19.5C124.66,-19.5 136.82,-19.5 147.68,-19.5"/>
<polygon fill="black" stroke="black" points="147.96,-23 157.96,-19.5 147.96,-16 147.96,-23"/>
<text text-anchor="middle" x="136.5" y="-23.3" font-family="Times,serif" font-size="14.00">1</text>
</g>
</g>
</svg>
