<?xml version="1.0" encoding="UTF-8" standalone="no"?>
<!DOCTYPE svg PUBLIC "-//W3C//DTD SVG 1.1//EN"
 "http://www.w3.org/Graphics/SVG/1.1/DTD/svg11.dtd">
<!-- Generated by graphviz version 2.43.0 (0)
 -->
<!-- Title: finite_state_machine Pages: 1 -->
<svg width="625pt" height="172pt"
 viewBox="0.00 0.00 625.50 171.91" xmlns="http://www.w3.org/2000/svg" xmlns:xlink="http://www.w3.org/1999/xlink">
<g id="graph0" class="graph" transform="scale(1 1) rotate(0) translate(4 167.91)">
<title>finite_state_machine</title>
<polygon fill="white" stroke="transparent" points="-4,4 -4,-167.91 621.5,-167.91 621.5,4 -4,4"/>
<!-- 4 -->
<g id="node1" class="node">
<title>4</title>
<ellipse fill="none" stroke="black" cx="100" cy="-91.91" rx="18" ry="18"/>
<text text-anchor="middle" x="100" y="-88.21" font-family="Times,serif" font-size="14.00">4</text>
</g>
<!-- 6 -->
<g id="node2" class="node">
<title>6</title>
<ellipse fill="none" stroke="black" cx="344" cy="-95.91" rx="18" ry="18"/>
<text text-anchor="middle" x="344" y="-92.21" font-family="Times,serif" font-size="14.00">6</text>
</g>
<!-- 4&#45;&gt;6 -->
<g id="edge1" class="edge">
<title>4&#45;&gt;6</title>
<path fill="none" stroke="black" d="M118.02,-92.19C159.41,-92.88 265.65,-94.63 315.89,-95.46"/>
<polygon fill="black" stroke="black" points="315.95,-98.96 326,-95.63 316.06,-91.97 315.95,-98.96"/>
<text text-anchor="middle" x="222" y="-99.71" font-family="Times,serif" font-size="14.00">4611686018427387903</text>
</g>
<!-- 8 -->
<g id="node7" class="node">
<title>8</title>
<ellipse fill="none" stroke="black" cx="426" cy="-95.91" rx="18" ry="18"/>
<text text-anchor="middle" x="426" y="-92.21" font-family="Times,serif" font-size="14.00">8</text>
</g>
<!-- 6&#45;&gt;8 -->
<g id="edge8" class="edge">
<title>6&#45;&gt;8</title>
<path fill="none" stroke="black" d="M362.36,-95.91C372.7,-95.91 386.06,-95.91 397.78,-95.91"/>
<polygon fill="black" stroke="black" points="397.95,-99.41 407.95,-95.91 397.95,-92.41 397.95,-99.41"/>
<text text-anchor="middle" x="385" y="-99.71" font-family="Times,serif" font-size="14.00">1</text>
</g>
<!-- 7 -->
<g id="node8" class="node">
<title>7</title>
<ellipse fill="none" stroke="black" cx="426" cy="-30.91" rx="18" ry="18"/>
<text text-anchor="middle" x="426" y="-27.21" font-family="Times,serif" font-size="14.00">7</text>
</g>
<!-- 6&#45;&gt;7 -->
<g id="edge9" class="edge">
<title>6&#45;&gt;7</title>
<path fill="none" stroke="black" d="M358.57,-84.89C370.94,-74.83 389.42,-59.82 403.75,-48.18"/>
<polygon fill="black" stroke="black" points="406.08,-50.8 411.63,-41.78 401.66,-45.36 406.08,-50.8"/>
<text text-anchor="middle" x="385" y="-71.71" font-family="Times,serif" font-size="14.00">1</text>
</g>
<!-- 3 -->
<g id="node3" class="node">
<title>3</title>
<ellipse fill="none" stroke="black" cx="100" cy="-145.91" rx="18" ry="18"/>
<text text-anchor="middle" x="100" y="-142.21" font-family="Times,serif" font-size="14.00">3</text>
</g>
<!-- 3&#45;&gt;6 -->
<g id="edge2" class="edge">
<title>3&#45;&gt;6</title>
<path fill="none" stroke="black" d="M118.1,-145.35C154.13,-143.74 240.12,-137.63 308,-114.91 311.87,-113.62 315.82,-111.91 319.6,-110.04"/>
<polygon fill="black" stroke="black" points="321.38,-113.06 328.53,-105.24 318.07,-106.9 321.38,-113.06"/>
<text text-anchor="middle" x="222" y="-148.71" font-family="Times,serif" font-size="14.00">4611686018427387903</text>
</g>
<!-- 0 -->
<g id="node4" class="node">
<title>0</title>
<ellipse fill="none" stroke="black" cx="18" cy="-91.91" rx="18" ry="18"/>
<text text-anchor="middle" x="18" y="-88.21" font-family="Times,serif" font-size="14.00">0</text>
</g>
<!-- 0&#45;&gt;4 -->
<g id="edge3" class="edge">
<title>0&#45;&gt;4</title>
<path fill="none" stroke="black" d="M36.36,-91.91C46.7,-91.91 60.06,-91.91 71.78,-91.91"/>
<polygon fill="black" stroke="black" points="71.95,-95.41 81.95,-91.91 71.95,-88.41 71.95,-95.41"/>
<text text-anchor="middle" x="59" y="-95.71" font-family="Times,serif" font-size="14.00">1</text>
</g>
<!-- 0&#45;&gt;3 -->
<g id="edge4" class="edge">
<title>0&#45;&gt;3</title>
<path fill="none" stroke="black" d="M33.3,-101.57C45.17,-109.58 62.28,-121.13 76.06,-130.43"/>
<polygon fill="black" stroke="black" points="74.31,-133.47 84.55,-136.16 78.22,-127.66 74.31,-133.47"/>
<text text-anchor="middle" x="59" y="-126.71" font-family="Times,serif" font-size="14.00">1</text>
</g>
<!-- 2 -->
<g id="node5" class="node">
<title>2</title>
<ellipse fill="none" stroke="black" cx="100" cy="-37.91" rx="18" ry="18"/>
<text text-anchor="middle" x="100" y="-34.21" font-family="Times,serif" font-size="14.00">2</text>
</g>
<!-- 0&#45;&gt;2 -->
<g id="edge5" class="edge">
<title>0&#45;&gt;2</title>
<path fill="none" stroke="black" d="M33.3,-82.26C45.17,-74.24 62.28,-62.7 76.06,-53.39"/>
<polygon fill="black" stroke="black" points="78.22,-56.16 84.55,-47.66 74.31,-50.36 78.22,-56.16"/>
<text text-anchor="middle" x="59" y="-72.71" font-family="Times,serif" font-size="14.00">1</text>
</g>
<!-- 2&#45;&gt;6 -->
<g id="edge6" class="edge">
<title>2&#45;&gt;6</title>
<path fill="none" stroke="black" d="M118.23,-38.66C154.5,-40.72 240.92,-48.15 308,-73.91 312.15,-75.5 316.33,-77.61 320.3,-79.89"/>
<polygon fill="black" stroke="black" points="318.69,-83.02 329.02,-85.37 322.41,-77.09 318.69,-83.02"/>
<text text-anchor="middle" x="222" y="-77.71" font-family="Times,serif" font-size="14.00">4611686018427387903</text>
</g>
<!-- 5 -->
<g id="node6" class="node">
<title>5</title>
<ellipse fill="none" stroke="black" cx="344" cy="-19.91" rx="18" ry="18"/>
<text text-anchor="middle" x="344" y="-16.21" font-family="Times,serif" font-size="14.00">5</text>
</g>
<!-- 2&#45;&gt;5 -->
<g id="edge7" class="edge">
<title>2&#45;&gt;5</title>
<path fill="none" stroke="black" d="M115.78,-28.91C121.83,-25.73 129.03,-22.53 136,-20.91 199.17,-6.22 276.14,-11.75 316.06,-16.28"/>
<polygon fill="black" stroke="black" points="315.72,-19.77 326.07,-17.49 316.56,-12.82 315.72,-19.77"/>
<text text-anchor="middle" x="222" y="-24.71" font-family="Times,serif" font-size="14.00">4611686018427387903</text>
</g>
<!-- 5&#45;&gt;8 -->
<g id="edge10" class="edge">
<title>5&#45;&gt;8</title>
<path fill="none" stroke="black" d="M361.71,-25.11C370.81,-28.55 381.84,-33.75 390,-40.91 399.38,-49.14 407.17,-60.49 413,-70.73"/>
<polygon fill="black" stroke="black" points="410,-72.54 417.8,-79.71 416.18,-69.24 410,-72.54"/>
<text text-anchor="middle" x="385" y="-44.71" font-family="Times,serif" font-size="14.00">1</text>
</g>
<!-- 5&#45;&gt;7 -->
<g id="edge11" class="edge">
<title>5&#45;&gt;7</title>
<path fill="none" stroke="black" d="M358.69,-8.94C367.56,-3.2 379.39,1.91 390,-1.91 395.57,-3.92 400.88,-7.24 405.6,-10.93"/>
<polygon fill="black" stroke="black" points="403.58,-13.81 413.4,-17.77 408.19,-8.55 403.58,-13.81"/>
<text text-anchor="middle" x="385" y="-5.71" font-family="Times,serif" font-size="14.00">1</text>
</g>
<!-- 10 -->
<g id="node9" class="node">
<title>10</title>
<ellipse fill="none" stroke="black" cx="512.75" cy="-92.91" rx="23" ry="23"/>
<text text-anchor="middle" x="512.75" y="-89.21" font-family="Times,serif" font-size="14.00">10</text>
</g>
<!-- 8&#45;&gt;10 -->
<g id="edge12" class="edge">
<title>8&#45;&gt;10</title>
<path fill="none" stroke="black" d="M444.07,-97.67C449.77,-98.18 456.15,-98.66 462,-98.91 466.44,-99.1 467.57,-99.24 472,-98.91 474.56,-98.72 477.2,-98.46 479.85,-98.15"/>
<polygon fill="black" stroke="black" points="480.5,-101.6 489.95,-96.8 479.57,-94.66 480.5,-101.6"/>
<text text-anchor="middle" x="467" y="-103.71" font-family="Times,serif" font-size="14.00">1</text>
</g>
<!-- 9 -->
<g id="node10" class="node">
<title>9</title>
<ellipse fill="none" stroke="black" cx="512.75" cy="-33.91" rx="18" ry="18"/>
<text text-anchor="middle" x="512.75" y="-30.21" font-family="Times,serif" font-size="14.00">9</text>
</g>
<!-- 8&#45;&gt;9 -->
<g id="edge13" class="edge">
<title>8&#45;&gt;9</title>
<path fill="none" stroke="black" d="M440.99,-85.67C454.12,-76.07 473.97,-61.55 489.31,-50.33"/>
<polygon fill="black" stroke="black" points="491.73,-52.89 497.73,-44.16 487.6,-47.24 491.73,-52.89"/>
<text text-anchor="middle" x="467" y="-72.71" font-family="Times,serif" font-size="14.00">1</text>
</g>
<!-- 7&#45;&gt;10 -->
<g id="edge16" class="edge">
<title>7&#45;&gt;10</title>
<path fill="none" stroke="black" d="M443.83,-33.73C452.75,-35.8 463.57,-39.26 472,-44.91 480.18,-50.4 487.58,-58.05 493.7,-65.64"/>
<polygon fill="black" stroke="black" points="491.01,-67.88 499.83,-73.74 496.59,-63.66 491.01,-67.88"/>
<text text-anchor="middle" x="467" y="-48.71" font-family="Times,serif" font-size="14.00">1</text>
</g>
<!-- 7&#45;&gt;9 -->
<g id="edge17" class="edge">
<title>7&#45;&gt;9</title>
<path fill="none" stroke="black" d="M439.47,-18.55C448.23,-11.41 460.4,-4.45 472,-7.91 478.33,-9.8 484.58,-13.05 490.2,-16.62"/>
<polygon fill="black" stroke="black" points="488.2,-19.5 498.4,-22.36 492.21,-13.76 488.2,-19.5"/>
<text text-anchor="middle" x="467" y="-11.71" font-family="Times,serif" font-size="14.00">1</text>
</g>
<!-- 1 -->
<g id="node11" class="node">
<title>1</title>
<ellipse fill="none" stroke="black" cx="599.5" cy="-62.91" rx="18" ry="18"/>
<text text-anchor="middle" x="599.5" y="-59.21" font-family="Times,serif" font-size="14.00">1</text>
</g>
<!-- 10&#45;&gt;1 -->
<g id="edge14" class="edge">
<title>10&#45;&gt;1</title>
<path fill="none" stroke="black" d="M534.7,-85.5C546.19,-81.43 560.52,-76.35 572.7,-72.04"/>
<polygon fill="black" stroke="black" points="574.04,-75.28 582.3,-68.64 571.71,-68.68 574.04,-75.28"/>
<text text-anchor="middle" x="558.5" y="-82.71" font-family="Times,serif" font-size="14.00">3</text>
</g>
<!-- 9&#45;&gt;1 -->
<g id="edge15" class="edge">
<title>9&#45;&gt;1</title>
<path fill="none" stroke="black" d="M530.39,-39.06C540.09,-42.11 552.52,-46.11 563.5,-49.91 566.62,-50.99 569.89,-52.16 573.12,-53.34"/>
<polygon fill="black" stroke="black" points="571.93,-56.63 582.52,-56.81 574.35,-50.06 571.93,-56.63"/>
<text text-anchor="middle" x="558.5" y="-53.71" font-family="Times,serif" font-size="14.00">3</text>
</g>
</g>
</svg>
