<?xml version="1.0" encoding="UTF-8" standalone="no"?>
<!DOCTYPE svg PUBLIC "-//W3C//DTD SVG 1.1//EN"
 "http://www.w3.org/Graphics/SVG/1.1/DTD/svg11.dtd">
<!-- Generated by graphviz version 2.43.0 (0)
 -->
<!-- Title: finite_state_machine Pages: 1 -->
<svg width="556pt" height="270pt"
 viewBox="0.00 0.00 555.99 270.00" xmlns="http://www.w3.org/2000/svg" xmlns:xlink="http://www.w3.org/1999/xlink">
<g id="graph0" class="graph" transform="scale(1 1) rotate(0) translate(4 266)">
<title>finite_state_machine</title>
<polygon fill="white" stroke="transparent" points="-4,4 -4,-266 551.99,-266 551.99,4 -4,4"/>
<!-- 7 -->
<g id="node1" class="node">
<title>7</title>
<ellipse fill="none" stroke="black" cx="285.5" cy="-242" rx="18" ry="18"/>
<text text-anchor="middle" x="285.5" y="-238.3" font-family="Times,serif" font-size="14.00">7</text>
</g>
<!-- 10 -->
<g id="node2" class="node">
<title>10</title>
<ellipse fill="none" stroke="black" cx="446.49" cy="-196" rx="19.5" ry="19.5"/>
<text text-anchor="middle" x="446.49" y="-192.3" font-family="Times,serif" font-size="14.00">10</text>
</g>
<!-- 7&#45;&gt;10 -->
<g id="edge1" class="edge">
<title>7&#45;&gt;10</title>
<path fill="none" stroke="black" d="M303.31,-238.23C327.07,-232.76 371.75,-221.97 409,-210 412.16,-208.98 415.45,-207.84 418.71,-206.66"/>
<polygon fill="black" stroke="black" points="420.06,-209.89 428.18,-203.09 417.59,-203.34 420.06,-209.89"/>
<text text-anchor="middle" x="366" y="-230.8" font-family="Times,serif" font-size="14.00">0</text>
</g>
<!-- 12 -->
<g id="node3" class="node">
<title>12</title>
<ellipse fill="none" stroke="black" cx="528.49" cy="-241" rx="19.5" ry="19.5"/>
<text text-anchor="middle" x="528.49" y="-237.3" font-family="Times,serif" font-size="14.00">12</text>
</g>
<!-- 7&#45;&gt;12 -->
<g id="edge2" class="edge">
<title>7&#45;&gt;12</title>
<path fill="none" stroke="black" d="M303.55,-244.26C309.67,-244.97 316.63,-245.65 323,-246 385.69,-249.43 459.32,-245.73 498.88,-243.12"/>
<polygon fill="black" stroke="black" points="499.13,-246.61 508.87,-242.44 498.65,-239.63 499.13,-246.61"/>
<text text-anchor="middle" x="405.5" y="-250.8" font-family="Times,serif" font-size="14.00">1</text>
</g>
<!-- 10&#45;&gt;12 -->
<g id="edge7" class="edge">
<title>10&#45;&gt;12</title>
<path fill="none" stroke="black" d="M464.07,-205.32C475.08,-211.52 489.76,-219.77 502.21,-226.78"/>
<polygon fill="black" stroke="black" points="500.78,-229.99 511.21,-231.84 504.21,-223.89 500.78,-229.99"/>
<text text-anchor="middle" x="487.49" y="-222.8" font-family="Times,serif" font-size="14.00">6</text>
</g>
<!-- 5 -->
<g id="node4" class="node">
<title>5</title>
<ellipse fill="none" stroke="black" cx="176" cy="-219" rx="18" ry="18"/>
<text text-anchor="middle" x="176" y="-215.3" font-family="Times,serif" font-size="14.00">5</text>
</g>
<!-- 5&#45;&gt;7 -->
<g id="edge4" class="edge">
<title>5&#45;&gt;7</title>
<path fill="none" stroke="black" d="M193.8,-222.59C210.92,-226.26 237.73,-231.99 257.77,-236.28"/>
<polygon fill="black" stroke="black" points="257.31,-239.76 267.82,-238.43 258.77,-232.92 257.31,-239.76"/>
<text text-anchor="middle" x="230" y="-236.8" font-family="Times,serif" font-size="14.00">1</text>
</g>
<!-- 5&#45;&gt;10 -->
<g id="edge3" class="edge">
<title>5&#45;&gt;10</title>
<path fill="none" stroke="black" d="M194.2,-217.53C239.23,-213.67 360.93,-203.24 416.78,-198.46"/>
<polygon fill="black" stroke="black" points="417.36,-201.92 427.03,-197.58 416.76,-194.95 417.36,-201.92"/>
<text text-anchor="middle" x="326.5" y="-209.8" font-family="Times,serif" font-size="14.00">1</text>
</g>
<!-- 2 -->
<g id="node5" class="node">
<title>2</title>
<ellipse fill="none" stroke="black" cx="97" cy="-232" rx="18" ry="18"/>
<text text-anchor="middle" x="97" y="-228.3" font-family="Times,serif" font-size="14.00">2</text>
</g>
<!-- 2&#45;&gt;5 -->
<g id="edge5" class="edge">
<title>2&#45;&gt;5</title>
<path fill="none" stroke="black" d="M115.09,-229.11C124.83,-227.47 137.24,-225.37 148.24,-223.52"/>
<polygon fill="black" stroke="black" points="148.95,-226.95 158.22,-221.83 147.78,-220.05 148.95,-226.95"/>
<text text-anchor="middle" x="136.5" y="-228.8" font-family="Times,serif" font-size="14.00">2</text>
</g>
<!-- 4 -->
<g id="node6" class="node">
<title>4</title>
<ellipse fill="none" stroke="black" cx="230" cy="-161" rx="18" ry="18"/>
<text text-anchor="middle" x="230" y="-157.3" font-family="Times,serif" font-size="14.00">4</text>
</g>
<!-- 4&#45;&gt;10 -->
<g id="edge6" class="edge">
<title>4&#45;&gt;10</title>
<path fill="none" stroke="black" d="M248.29,-160.51C266.78,-160.02 296.96,-159.28 323,-159 326.11,-158.97 326.92,-158.56 330,-159 366.2,-164.16 374.34,-170.33 409,-182 412.15,-183.06 415.43,-184.23 418.68,-185.42"/>
<polygon fill="black" stroke="black" points="417.56,-188.74 428.15,-189.01 420.04,-182.2 417.56,-188.74"/>
<text text-anchor="middle" x="326.5" y="-162.8" font-family="Times,serif" font-size="14.00">2</text>
</g>
<!-- 9 -->
<g id="node7" class="node">
<title>9</title>
<ellipse fill="none" stroke="black" cx="366" cy="-91" rx="18" ry="18"/>
<text text-anchor="middle" x="366" y="-87.3" font-family="Times,serif" font-size="14.00">9</text>
</g>
<!-- 9&#45;&gt;10 -->
<g id="edge8" class="edge">
<title>9&#45;&gt;10</title>
<path fill="none" stroke="black" d="M380.97,-101.61C389.72,-108.72 400.84,-118.65 409,-129 418.6,-141.19 427.05,-156.25 433.4,-169.01"/>
<polygon fill="black" stroke="black" points="430.35,-170.73 437.83,-178.22 436.65,-167.69 430.35,-170.73"/>
<text text-anchor="middle" x="405.5" y="-132.8" font-family="Times,serif" font-size="14.00">3</text>
</g>
<!-- 11 -->
<g id="node8" class="node">
<title>11</title>
<ellipse fill="none" stroke="black" cx="285.5" cy="-33" rx="19.5" ry="19.5"/>
<text text-anchor="middle" x="285.5" y="-29.3" font-family="Times,serif" font-size="14.00">11</text>
</g>
<!-- 11&#45;&gt;9 -->
<g id="edge9" class="edge">
<title>11&#45;&gt;9</title>
<path fill="none" stroke="black" d="M302.48,-43.08C310.82,-48.49 321.11,-55.39 330,-62 334.66,-65.48 339.55,-69.36 344.13,-73.12"/>
<polygon fill="black" stroke="black" points="342.04,-75.93 351.96,-79.65 346.53,-70.56 342.04,-75.93"/>
<text text-anchor="middle" x="326.5" y="-65.8" font-family="Times,serif" font-size="14.00">1</text>
</g>
<!-- 8 -->
<g id="node9" class="node">
<title>8</title>
<ellipse fill="none" stroke="black" cx="176" cy="-18" rx="18" ry="18"/>
<text text-anchor="middle" x="176" y="-14.3" font-family="Times,serif" font-size="14.00">8</text>
</g>
<!-- 8&#45;&gt;11 -->
<g id="edge10" class="edge">
<title>8&#45;&gt;11</title>
<path fill="none" stroke="black" d="M194.27,-20.41C210.87,-22.73 236.27,-26.27 255.89,-29.01"/>
<polygon fill="black" stroke="black" points="255.44,-32.48 265.83,-30.39 256.4,-25.55 255.44,-32.48"/>
<text text-anchor="middle" x="230" y="-31.8" font-family="Times,serif" font-size="14.00">1</text>
</g>
<!-- 3 -->
<g id="node10" class="node">
<title>3</title>
<ellipse fill="none" stroke="black" cx="97" cy="-72" rx="18" ry="18"/>
<text text-anchor="middle" x="97" y="-68.3" font-family="Times,serif" font-size="14.00">3</text>
</g>
<!-- 3&#45;&gt;8 -->
<g id="edge12" class="edge">
<title>3&#45;&gt;8</title>
<path fill="none" stroke="black" d="M110.82,-59.99C117.24,-54.24 125.28,-47.44 133,-42 138.5,-38.13 144.66,-34.33 150.54,-30.94"/>
<polygon fill="black" stroke="black" points="152.38,-33.92 159.41,-25.99 148.97,-27.81 152.38,-33.92"/>
<text text-anchor="middle" x="136.5" y="-45.8" font-family="Times,serif" font-size="14.00">1</text>
</g>
<!-- 6 -->
<g id="node11" class="node">
<title>6</title>
<ellipse fill="none" stroke="black" cx="176" cy="-91" rx="18" ry="18"/>
<text text-anchor="middle" x="176" y="-87.3" font-family="Times,serif" font-size="14.00">6</text>
</g>
<!-- 3&#45;&gt;6 -->
<g id="edge11" class="edge">
<title>3&#45;&gt;6</title>
<path fill="none" stroke="black" d="M114.71,-76.12C124.6,-78.56 137.34,-81.71 148.57,-84.48"/>
<polygon fill="black" stroke="black" points="147.78,-87.89 158.32,-86.89 149.45,-81.09 147.78,-87.89"/>
<text text-anchor="middle" x="136.5" y="-86.8" font-family="Times,serif" font-size="14.00">2</text>
</g>
<!-- 6&#45;&gt;9 -->
<g id="edge13" class="edge">
<title>6&#45;&gt;9</title>
<path fill="none" stroke="black" d="M194.02,-91C226.65,-91 298.28,-91 337.69,-91"/>
<polygon fill="black" stroke="black" points="337.88,-94.5 347.88,-91 337.88,-87.5 337.88,-94.5"/>
<text text-anchor="middle" x="285.5" y="-94.8" font-family="Times,serif" font-size="14.00">2</text>
</g>
<!-- 6&#45;&gt;3 -->
<g id="edge14" class="edge">
<title>6&#45;&gt;3</title>
<path fill="none" stroke="black" d="M163.4,-77.86C157.16,-71.78 148.91,-65.21 140,-62 134.62,-60.06 128.72,-60.17 123.09,-61.27"/>
<polygon fill="black" stroke="black" points="122.02,-57.93 113.4,-64.1 123.98,-64.65 122.02,-57.93"/>
<text text-anchor="middle" x="136.5" y="-65.8" font-family="Times,serif" font-size="14.00">1</text>
</g>
<!-- 1 -->
<g id="node12" class="node">
<title>1</title>
<ellipse fill="none" stroke="black" cx="97" cy="-167" rx="18" ry="18"/>
<text text-anchor="middle" x="97" y="-163.3" font-family="Times,serif" font-size="14.00">1</text>
</g>
<!-- 1&#45;&gt;5 -->
<g id="edge15" class="edge">
<title>1&#45;&gt;5</title>
<path fill="none" stroke="black" d="M112.48,-176.78C123.67,-184.33 139.36,-194.93 152.22,-203.62"/>
<polygon fill="black" stroke="black" points="150.34,-206.57 160.58,-209.26 154.25,-200.77 150.34,-206.57"/>
<text text-anchor="middle" x="136.5" y="-197.8" font-family="Times,serif" font-size="14.00">0</text>
</g>
<!-- 1&#45;&gt;4 -->
<g id="edge16" class="edge">
<title>1&#45;&gt;4</title>
<path fill="none" stroke="black" d="M115.13,-166.22C137.09,-165.21 175.46,-163.45 201.53,-162.26"/>
<polygon fill="black" stroke="black" points="202.04,-165.74 211.87,-161.78 201.72,-158.75 202.04,-165.74"/>
<text text-anchor="middle" x="136.5" y="-168.8" font-family="Times,serif" font-size="14.00">2</text>
</g>
<!-- 1&#45;&gt;6 -->
<g id="edge17" class="edge">
<title>1&#45;&gt;6</title>
<path fill="none" stroke="black" d="M109.79,-154.13C116.48,-146.93 125.09,-137.84 133,-130 139.81,-123.25 147.44,-116.06 154.31,-109.72"/>
<polygon fill="black" stroke="black" points="156.92,-112.07 161.93,-102.74 152.19,-106.91 156.92,-112.07"/>
<text text-anchor="middle" x="136.5" y="-133.8" font-family="Times,serif" font-size="14.00">1</text>
</g>
<!-- 0 -->
<g id="node13" class="node">
<title>0</title>
<ellipse fill="none" stroke="black" cx="18" cy="-167" rx="18" ry="18"/>
<text text-anchor="middle" x="18" y="-163.3" font-family="Times,serif" font-size="14.00">0</text>
</g>
<!-- 0&#45;&gt;2 -->
<g id="edge19" class="edge">
<title>0&#45;&gt;2</title>
<path fill="none" stroke="black" d="M32.41,-178.32C44.12,-188.2 61.3,-202.71 74.85,-214.15"/>
<polygon fill="black" stroke="black" points="72.84,-217.03 82.74,-220.81 77.36,-211.68 72.84,-217.03"/>
<text text-anchor="middle" x="57.5" y="-204.8" font-family="Times,serif" font-size="14.00">2</text>
</g>
<!-- 0&#45;&gt;3 -->
<g id="edge18" class="edge">
<title>0&#45;&gt;3</title>
<path fill="none" stroke="black" d="M30.03,-153.39C42.73,-137.73 63.73,-111.81 78.63,-93.43"/>
<polygon fill="black" stroke="black" points="81.41,-95.56 84.99,-85.59 75.97,-91.15 81.41,-95.56"/>
<text text-anchor="middle" x="57.5" y="-126.8" font-family="Times,serif" font-size="14.00">2</text>
</g>
<!-- 0&#45;&gt;1 -->
<g id="edge20" class="edge">
<title>0&#45;&gt;1</title>
<path fill="none" stroke="black" d="M36.09,-167C45.66,-167 57.82,-167 68.68,-167"/>
<polygon fill="black" stroke="black" points="68.96,-170.5 78.96,-167 68.96,-163.5 68.96,-170.5"/>
<text text-anchor="middle" x="57.5" y="-170.8" font-family="Times,serif" font-size="14.00">3</text>
</g>
</g>
</svg>
