<?xml version="1.0" encoding="UTF-8" standalone="no"?>
<!DOCTYPE svg PUBLIC "-//W3C//DTD SVG 1.1//EN"
 "http://www.w3.org/Graphics/SVG/1.1/DTD/svg11.dtd">
<!-- Generated by graphviz version 2.43.0 (0)
 -->
<!-- Title: finite_state_machine Pages: 1 -->
<svg width="556pt" height="232pt"
 viewBox="0.00 0.00 555.99 231.58" xmlns="http://www.w3.org/2000/svg" xmlns:xlink="http://www.w3.org/1999/xlink">
<g id="graph0" class="graph" transform="scale(1 1) rotate(0) translate(4 227.58)">
<title>finite_state_machine</title>
<polygon fill="white" stroke="transparent" points="-4,4 -4,-227.58 551.99,-227.58 551.99,4 -4,4"/>
<!-- 7 -->
<g id="node1" class="node">
<title>7</title>
<ellipse fill="none" stroke="black" cx="285.5" cy="-203.58" rx="18" ry="18"/>
<text text-anchor="middle" x="285.5" y="-199.88" font-family="Times,serif" font-size="14.00">7</text>
</g>
<!-- 10 -->
<g id="node2" class="node">
<title>10</title>
<ellipse fill="none" stroke="black" cx="446.49" cy="-157.58" rx="19.5" ry="19.5"/>
<text text-anchor="middle" x="446.49" y="-153.88" font-family="Times,serif" font-size="14.00">10</text>
</g>
<!-- 7&#45;&gt;10 -->
<g id="edge1" class="edge">
<title>7&#45;&gt;10</title>
<path fill="none" stroke="black" d="M303.31,-199.81C327.07,-194.34 371.75,-183.55 409,-171.58 412.16,-170.56 415.45,-169.42 418.71,-168.24"/>
<polygon fill="black" stroke="black" points="420.06,-171.47 428.18,-164.67 417.59,-164.92 420.06,-171.47"/>
<text text-anchor="middle" x="366" y="-192.38" font-family="Times,serif" font-size="14.00">1</text>
</g>
<!-- 12 -->
<g id="node3" class="node">
<title>12</title>
<ellipse fill="none" stroke="black" cx="528.49" cy="-202.58" rx="19.5" ry="19.5"/>
<text text-anchor="middle" x="528.49" y="-198.88" font-family="Times,serif" font-size="14.00">12</text>
</g>
<!-- 7&#45;&gt;12 -->
<g id="edge2" class="edge">
<title>7&#45;&gt;12</title>
<path fill="none" stroke="black" d="M303.55,-205.84C309.67,-206.54 316.63,-207.23 323,-207.58 385.69,-211 459.32,-207.31 498.88,-204.7"/>
<polygon fill="black" stroke="black" points="499.13,-208.19 508.87,-204.02 498.65,-201.21 499.13,-208.19"/>
<text text-anchor="middle" x="405.5" y="-212.38" font-family="Times,serif" font-size="14.00">2</text>
</g>
<!-- 10&#45;&gt;12 -->
<g id="edge7" class="edge">
<title>10&#45;&gt;12</title>
<path fill="none" stroke="black" d="M464.07,-166.9C475.08,-173.1 489.76,-181.35 502.21,-188.36"/>
<polygon fill="black" stroke="black" points="500.78,-191.57 511.21,-193.42 504.21,-185.47 500.78,-191.57"/>
<text text-anchor="middle" x="487.49" y="-184.38" font-family="Times,serif" font-size="14.00">6</text>
</g>
<!-- 5 -->
<g id="node4" class="node">
<title>5</title>
<ellipse fill="none" stroke="black" cx="176" cy="-180.58" rx="18" ry="18"/>
<text text-anchor="middle" x="176" y="-176.88" font-family="Times,serif" font-size="14.00">5</text>
</g>
<!-- 5&#45;&gt;7 -->
<g id="edge4" class="edge">
<title>5&#45;&gt;7</title>
<path fill="none" stroke="black" d="M193.8,-184.17C210.92,-187.84 237.73,-193.57 257.77,-197.86"/>
<polygon fill="black" stroke="black" points="257.31,-201.34 267.82,-200.01 258.77,-194.5 257.31,-201.34"/>
<text text-anchor="middle" x="230" y="-198.38" font-family="Times,serif" font-size="14.00">1</text>
</g>
<!-- 5&#45;&gt;10 -->
<g id="edge3" class="edge">
<title>5&#45;&gt;10</title>
<path fill="none" stroke="black" d="M194.2,-179.11C239.23,-175.25 360.93,-164.82 416.78,-160.04"/>
<polygon fill="black" stroke="black" points="417.36,-163.5 427.03,-159.16 416.76,-156.53 417.36,-163.5"/>
<text text-anchor="middle" x="326.5" y="-171.38" font-family="Times,serif" font-size="14.00">1</text>
</g>
<!-- 2 -->
<g id="node5" class="node">
<title>2</title>
<ellipse fill="none" stroke="black" cx="97" cy="-187.58" rx="18" ry="18"/>
<text text-anchor="middle" x="97" y="-183.88" font-family="Times,serif" font-size="14.00">2</text>
</g>
<!-- 2&#45;&gt;5 -->
<g id="edge5" class="edge">
<title>2&#45;&gt;5</title>
<path fill="none" stroke="black" d="M115.09,-186.03C124.66,-185.16 136.82,-184.05 147.68,-183.06"/>
<polygon fill="black" stroke="black" points="148.32,-186.52 157.96,-182.13 147.68,-179.55 148.32,-186.52"/>
<text text-anchor="middle" x="136.5" y="-187.38" font-family="Times,serif" font-size="14.00">2</text>
</g>
<!-- 4 -->
<g id="node6" class="node">
<title>4</title>
<ellipse fill="none" stroke="black" cx="230" cy="-119.58" rx="18" ry="18"/>
<text text-anchor="middle" x="230" y="-115.88" font-family="Times,serif" font-size="14.00">4</text>
</g>
<!-- 4&#45;&gt;10 -->
<g id="edge6" class="edge">
<title>4&#45;&gt;10</title>
<path fill="none" stroke="black" d="M248.28,-118.34C268.12,-117.24 301.6,-116.38 330,-120.58 366.17,-125.92 374.34,-131.91 409,-143.58 412.15,-144.64 415.43,-145.81 418.68,-147"/>
<polygon fill="black" stroke="black" points="417.56,-150.32 428.15,-150.59 420.04,-143.77 417.56,-150.32"/>
<text text-anchor="middle" x="326.5" y="-124.38" font-family="Times,serif" font-size="14.00">2</text>
</g>
<!-- 9 -->
<g id="node7" class="node">
<title>9</title>
<ellipse fill="none" stroke="black" cx="366" cy="-72.58" rx="18" ry="18"/>
<text text-anchor="middle" x="366" y="-68.88" font-family="Times,serif" font-size="14.00">9</text>
</g>
<!-- 9&#45;&gt;10 -->
<g id="edge8" class="edge">
<title>9&#45;&gt;10</title>
<path fill="none" stroke="black" d="M383.59,-76.86C391.97,-79.67 401.84,-84.06 409,-90.58 420.74,-101.27 429.49,-116.64 435.47,-129.97"/>
<polygon fill="black" stroke="black" points="432.25,-131.34 439.35,-139.21 438.71,-128.64 432.25,-131.34"/>
<text text-anchor="middle" x="405.5" y="-94.38" font-family="Times,serif" font-size="14.00">4</text>
</g>
<!-- 11 -->
<g id="node8" class="node">
<title>11</title>
<ellipse fill="none" stroke="black" cx="285.5" cy="-72.58" rx="19.5" ry="19.5"/>
<text text-anchor="middle" x="285.5" y="-68.88" font-family="Times,serif" font-size="14.00">11</text>
</g>
<!-- 11&#45;&gt;9 -->
<g id="edge9" class="edge">
<title>11&#45;&gt;9</title>
<path fill="none" stroke="black" d="M305.1,-72.58C314.83,-72.58 326.92,-72.58 337.68,-72.58"/>
<polygon fill="black" stroke="black" points="337.87,-76.08 347.87,-72.58 337.87,-69.08 337.87,-76.08"/>
<text text-anchor="middle" x="326.5" y="-76.38" font-family="Times,serif" font-size="14.00">2</text>
</g>
<!-- 8 -->
<g id="node9" class="node">
<title>8</title>
<ellipse fill="none" stroke="black" cx="176" cy="-73.58" rx="18" ry="18"/>
<text text-anchor="middle" x="176" y="-69.88" font-family="Times,serif" font-size="14.00">8</text>
</g>
<!-- 8&#45;&gt;11 -->
<g id="edge10" class="edge">
<title>8&#45;&gt;11</title>
<path fill="none" stroke="black" d="M194.27,-73.42C210.8,-73.26 236.03,-73.03 255.62,-72.85"/>
<polygon fill="black" stroke="black" points="255.86,-76.35 265.83,-72.75 255.79,-69.35 255.86,-76.35"/>
<text text-anchor="middle" x="230" y="-77.38" font-family="Times,serif" font-size="14.00">2</text>
</g>
<!-- 3 -->
<g id="node10" class="node">
<title>3</title>
<ellipse fill="none" stroke="black" cx="97" cy="-71.58" rx="18" ry="18"/>
<text text-anchor="middle" x="97" y="-67.88" font-family="Times,serif" font-size="14.00">3</text>
</g>
<!-- 3&#45;&gt;8 -->
<g id="edge12" class="edge">
<title>3&#45;&gt;8</title>
<path fill="none" stroke="black" d="M115.09,-72.02C124.66,-72.27 136.82,-72.59 147.68,-72.87"/>
<polygon fill="black" stroke="black" points="147.87,-76.38 157.96,-73.14 148.05,-69.38 147.87,-76.38"/>
<text text-anchor="middle" x="136.5" y="-77.38" font-family="Times,serif" font-size="14.00">2</text>
</g>
<!-- 6 -->
<g id="node11" class="node">
<title>6</title>
<ellipse fill="none" stroke="black" cx="176" cy="-19.58" rx="18" ry="18"/>
<text text-anchor="middle" x="176" y="-15.88" font-family="Times,serif" font-size="14.00">6</text>
</g>
<!-- 3&#45;&gt;6 -->
<g id="edge11" class="edge">
<title>3&#45;&gt;6</title>
<path fill="none" stroke="black" d="M101.51,-53.87C105.82,-37.36 114.91,-13.68 133,-2.58 139.27,1.27 146.56,0.04 153.29,-3.07"/>
<polygon fill="black" stroke="black" points="151.58,-6.13 161.98,-8.18 155.13,-0.1 151.58,-6.13"/>
<text text-anchor="middle" x="136.5" y="-6.38" font-family="Times,serif" font-size="14.00">2</text>
</g>
<!-- 6&#45;&gt;9 -->
<g id="edge13" class="edge">
<title>6&#45;&gt;9</title>
<path fill="none" stroke="black" d="M194.18,-18.06C219.34,-16.47 267.31,-15.83 305,-29.58 319.58,-34.9 333.79,-44.81 344.72,-53.78"/>
<polygon fill="black" stroke="black" points="342.53,-56.51 352.4,-60.36 347.09,-51.19 342.53,-56.51"/>
<text text-anchor="middle" x="285.5" y="-33.38" font-family="Times,serif" font-size="14.00">2</text>
</g>
<!-- 1 -->
<g id="node12" class="node">
<title>1</title>
<ellipse fill="none" stroke="black" cx="97" cy="-125.58" rx="18" ry="18"/>
<text text-anchor="middle" x="97" y="-121.88" font-family="Times,serif" font-size="14.00">1</text>
</g>
<!-- 1&#45;&gt;5 -->
<g id="edge14" class="edge">
<title>1&#45;&gt;5</title>
<path fill="none" stroke="black" d="M112.12,-135.67C123.41,-143.73 139.45,-155.19 152.5,-164.51"/>
<polygon fill="black" stroke="black" points="150.79,-167.59 160.97,-170.56 154.86,-161.89 150.79,-167.59"/>
<text text-anchor="middle" x="136.5" y="-158.38" font-family="Times,serif" font-size="14.00">2</text>
</g>
<!-- 1&#45;&gt;4 -->
<g id="edge15" class="edge">
<title>1&#45;&gt;4</title>
<path fill="none" stroke="black" d="M115.13,-124.79C137.09,-123.79 175.46,-122.03 201.53,-120.84"/>
<polygon fill="black" stroke="black" points="202.04,-124.32 211.87,-120.36 201.72,-117.32 202.04,-124.32"/>
<text text-anchor="middle" x="136.5" y="-127.38" font-family="Times,serif" font-size="14.00">2</text>
</g>
<!-- 1&#45;&gt;6 -->
<g id="edge16" class="edge">
<title>1&#45;&gt;6</title>
<path fill="none" stroke="black" d="M107.85,-111.01C110.33,-107.06 112.89,-102.72 115,-98.58 124.78,-79.39 120.22,-70.92 133,-53.58 138.17,-46.57 145.11,-40.18 151.86,-34.87"/>
<polygon fill="black" stroke="black" points="154.17,-37.51 160.16,-28.77 150.03,-31.87 154.17,-37.51"/>
<text text-anchor="middle" x="136.5" y="-57.38" font-family="Times,serif" font-size="14.00">2</text>
</g>
<!-- 0 -->
<g id="node13" class="node">
<title>0</title>
<ellipse fill="none" stroke="black" cx="18" cy="-125.58" rx="18" ry="18"/>
<text text-anchor="middle" x="18" y="-121.88" font-family="Times,serif" font-size="14.00">0</text>
</g>
<!-- 0&#45;&gt;2 -->
<g id="edge18" class="edge">
<title>0&#45;&gt;2</title>
<path fill="none" stroke="black" d="M32.41,-136.38C44.04,-145.74 61.09,-159.47 74.6,-170.35"/>
<polygon fill="black" stroke="black" points="72.5,-173.15 82.48,-176.7 76.89,-167.7 72.5,-173.15"/>
<text text-anchor="middle" x="57.5" y="-161.38" font-family="Times,serif" font-size="14.00">2</text>
</g>
<!-- 0&#45;&gt;3 -->
<g id="edge17" class="edge">
<title>0&#45;&gt;3</title>
<path fill="none" stroke="black" d="M33.12,-115.67C44.34,-107.81 60.25,-96.65 73.26,-87.53"/>
<polygon fill="black" stroke="black" points="75.53,-90.21 81.71,-81.6 71.51,-84.48 75.53,-90.21"/>
<text text-anchor="middle" x="57.5" y="-103.38" font-family="Times,serif" font-size="14.00">2</text>
</g>
<!-- 0&#45;&gt;1 -->
<g id="edge19" class="edge">
<title>0&#45;&gt;1</title>
<path fill="none" stroke="black" d="M36.09,-125.58C45.66,-125.58 57.82,-125.58 68.68,-125.58"/>
<polygon fill="black" stroke="black" points="68.96,-129.08 78.96,-125.58 68.96,-122.08 68.96,-129.08"/>
<text text-anchor="middle" x="57.5" y="-129.38" font-family="Times,serif" font-size="14.00">4</text>
</g>
</g>
</svg>
